<?xml version="1.0" encoding="utf-8" standalone="no"?>
<!DOCTYPE svg PUBLIC "-//W3C//DTD SVG 1.1//EN"
  "http://www.w3.org/Graphics/SVG/1.1/DTD/svg11.dtd">
<svg xmlns:xlink="http://www.w3.org/1999/xlink" width="522.224462pt" height="369.288pt" viewBox="0 0 522.224462 369.288" xmlns="http://www.w3.org/2000/svg" version="1.1">
 <metadata>
  <rdf:RDF xmlns:dc="http://purl.org/dc/elements/1.1/" xmlns:cc="http://creativecommons.org/ns#" xmlns:rdf="http://www.w3.org/1999/02/22-rdf-syntax-ns#">
   <cc:Work>
    <dc:type rdf:resource="http://purl.org/dc/dcmitype/StillImage"/>
    <dc:date>2026-08-30T12:43:28.368204</dc:date>
    <dc:format>image/svg+xml</dc:format>
    <dc:creator>
     <cc:Agent>
      <dc:title>Matplotlib v3.10.8, https://matplotlib.org/</dc:title>
     </cc:Agent>
    </dc:creator>
   </cc:Work>
  </rdf:RDF>
 </metadata>
 <defs>
  <style type="text/css">*{stroke-linejoin: round; stroke-linecap: butt}</style>
 </defs>
 <g id="figure_1">
  <g id="patch_1">
   <path d="M 0 369.288
L 522.224462 369.288
L 522.224462 0
L 0 0
z
" style="fill: #ffffff"/>
  </g>
  <g id="axes_1">
   <g id="patch_2">
    <path d="M 25.448224 72.617143
L 60.802741 72.617143
Q 66.127217 72.617143 66.127217 69.588571
L 66.127217 53.113143
Q 66.127217 50.084571 60.802741 50.084571
L 25.448224 50.084571
Q 20.123748 50.084571 20.123748 53.113143
L 20.123748 69.588571
Q 20.123748 72.617143 25.448224 72.617143
z
" clip-path="url(#p12d4a25fb7)" style="fill: #eaf3fd; stroke: #2a78d6; stroke-width: 0.8; stroke-linejoin: miter"/>
   </g>
   <g id="patch_3">
    <path d="M 78.692979 95.634286
L 99.138965 95.634286
Q 104.463441 95.634286 104.463441 92.605714
L 104.463441 76.130286
Q 104.463441 73.101714 99.138965 73.101714
L 78.692979 73.101714
Q 73.368503 73.101714 73.368503 76.130286
L 73.368503 92.605714
Q 73.368503 95.634286 78.692979 95.634286
z
" clip-path="url(#p12d4a25fb7)" style="fill: #fff5d8; stroke: #eda100; stroke-width: 0.8; stroke-linejoin: miter"/>
   </g>
   <g id="patch_4">
    <path d="M 112.769622 95.634286
L 133.215608 95.634286
Q 138.540084 95.634286 138.540084 92.605714
L 138.540084 76.130286
Q 138.540084 73.101714 133.215608 73.101714
L 112.769622 73.101714
Q 107.445147 73.101714 107.445147 76.130286
L 107.445147 92.605714
Q 107.445147 95.634286 112.769622 95.634286
z
" clip-path="url(#p12d4a25fb7)" style="fill: #fff5d8; stroke: #eda100; stroke-width: 0.8; stroke-linejoin: miter"/>
   </g>
   <g id="patch_5">
    <path d="M 146.846266 95.634286
L 167.292252 95.634286
Q 172.616727 95.634286 172.616727 92.605714
L 172.616727 76.130286
Q 172.616727 73.101714 167.292252 73.101714
L 146.846266 73.101714
Q 141.52179 73.101714 141.52179 76.130286
L 141.52179 92.605714
Q 141.52179 95.634286 146.846266 95.634286
z
" clip-path="url(#p12d4a25fb7)" style="fill: #f2f0ec; stroke: #eda100; stroke-width: 0.8; stroke-linejoin: miter"/>
   </g>
   <g id="patch_6">
    <path d="M 180.922909 95.634286
L 201.368895 95.634286
Q 206.693371 95.634286 206.693371 92.605714
L 206.693371 76.130286
Q 206.693371 73.101714 201.368895 73.101714
L 180.922909 73.101714
Q 175.598434 73.101714 175.598434 76.130286
L 175.598434 92.605714
Q 175.598434 95.634286 180.922909 95.634286
z
" clip-path="url(#p12d4a25fb7)" style="fill: #f2f0ec; stroke: #eda100; stroke-width: 0.8; stroke-linejoin: miter"/>
   </g>
   <g id="patch_7">
    <path d="M 78.692979 135.611429
L 99.138965 135.611429
Q 104.463441 135.611429 104.463441 132.582857
L 104.463441 116.107429
Q 104.463441 113.078857 99.138965 113.078857
L 78.692979 113.078857
Q 73.368503 113.078857 73.368503 116.107429
L 73.368503 132.582857
Q 73.368503 135.611429 78.692979 135.611429
z
" clip-path="url(#p12d4a25fb7)" style="fill: #e7f7f1; stroke: #1baf7a; stroke-width: 0.8; stroke-linejoin: miter"/>
   </g>
   <g id="patch_8">
    <path d="M 112.769622 135.611429
L 133.215608 135.611429
Q 138.540084 135.611429 138.540084 132.582857
L 138.540084 116.107429
Q 138.540084 113.078857 133.215608 113.078857
L 112.769622 113.078857
Q 107.445147 113.078857 107.445147 116.107429
L 107.445147 132.582857
Q 107.445147 135.611429 112.769622 135.611429
z
" clip-path="url(#p12d4a25fb7)" style="fill: #e7f7f1; stroke: #1baf7a; stroke-width: 0.8; stroke-linejoin: miter"/>
   </g>
   <g id="patch_9">
    <path d="M 146.846266 135.611429
L 167.292252 135.611429
Q 172.616727 135.611429 172.616727 132.582857
L 172.616727 116.107429
Q 172.616727 113.078857 167.292252 113.078857
L 146.846266 113.078857
Q 141.52179 113.078857 141.52179 116.107429
L 141.52179 132.582857
Q 141.52179 135.611429 146.846266 135.611429
z
" clip-path="url(#p12d4a25fb7)" style="fill: #e7f7f1; stroke: #1baf7a; stroke-width: 0.8; stroke-linejoin: miter"/>
   </g>
   <g id="patch_10">
    <path d="M 180.922909 135.611429
L 201.368895 135.611429
Q 206.693371 135.611429 206.693371 132.582857
L 206.693371 116.107429
Q 206.693371 113.078857 201.368895 113.078857
L 180.922909 113.078857
Q 175.598434 113.078857 175.598434 116.107429
L 175.598434 132.582857
Q 175.598434 135.611429 180.922909 135.611429
z
" clip-path="url(#p12d4a25fb7)" style="fill: #e7f7f1; stroke: #1baf7a; stroke-width: 0.8; stroke-linejoin: miter"/>
   </g>
   <g id="text_1">
    <text style="font-weight: 700; font-size: 11px; font-family: 'Inter', 'Helvetica Neue', 'Arial', sans-serif; text-anchor: start; fill: #2a2723" x="17.568" y="35.305143" transform="rotate(-0 17.568 35.305143)">(a)</text>
   </g>
   <g id="text_2">
    <text style="font-weight: 700; font-size: 10px; font-family: 'Inter', 'Helvetica Neue', 'Arial', sans-serif; text-anchor: start; fill: #2a2723" x="45.255273" y="35.305143" transform="rotate(-0 45.255273 35.305143)">A situation model becomes complete</text>
   </g>
   <g id="text_3">
    <text style="font-size: 8px; font-family: 'Inter', 'Helvetica Neue', 'Arial', sans-serif; fill: #2a2723" transform="translate(25.713608 59.122357)">event cue</text>
    <text style="font-size: 8px; font-family: 'Inter', 'Helvetica Neue', 'Arial', sans-serif; fill: #2a2723" transform="translate(27.644858 67.715607)">(context)</text>
   </g>
   <g id="text_4">
    <text style="font-size: 8px; font-family: 'Inter', 'Helvetica Neue', 'Arial', sans-serif; text-anchor: start; fill: #6f6a61" x="75.072336" y="54.688" transform="rotate(-0 75.072336 54.688)">feature slots</text>
   </g>
   <g id="text_5">
    <text style="font-weight: 700; font-size: 8px; font-family: 'Inter', 'Helvetica Neue', 'Arial', sans-serif; text-anchor: middle; fill: #2a2723" x="88.915972" y="63.168" transform="rotate(-0 88.915972 63.168)">F1</text>
   </g>
   <g id="text_6">
    <text style="font-weight: 700; font-size: 8px; font-family: 'Inter', 'Helvetica Neue', 'Arial', sans-serif; text-anchor: middle; fill: #2a2723" x="122.992615" y="63.168" transform="rotate(-0 122.992615 63.168)">F2</text>
   </g>
   <g id="text_7">
    <text style="font-weight: 700; font-size: 8px; font-family: 'Inter', 'Helvetica Neue', 'Arial', sans-serif; text-anchor: middle; fill: #2a2723" x="157.069259" y="63.168" transform="rotate(-0 157.069259 63.168)">F3</text>
   </g>
   <g id="text_8">
    <text style="font-weight: 700; font-size: 8px; font-family: 'Inter', 'Helvetica Neue', 'Arial', sans-serif; text-anchor: middle; fill: #2a2723" x="191.145902" y="63.168" transform="rotate(-0 191.145902 63.168)">F4</text>
   </g>
   <g id="text_9">
    <text style="font-weight: 700; font-size: 7.5px; font-family: 'Inter', 'Helvetica Neue', 'Arial', sans-serif; text-anchor: start; fill: #2a2723" x="19.69779" y="86.306867" transform="rotate(-0 19.69779 86.306867)">mid-event</text>
   </g>
   <g id="text_10">
    <text style="font-size: 9px; font-family: 'Inter', 'Helvetica Neue', 'Arial', sans-serif; text-anchor: middle; fill: #2a2723" x="88.915972" y="86.694641" transform="rotate(-0 88.915972 86.694641)">+1</text>
   </g>
   <g id="text_11">
    <text style="font-size: 9px; font-family: 'Inter', 'Helvetica Neue', 'Arial', sans-serif; text-anchor: middle; fill: #2a2723" x="122.992615" y="86.694641" transform="rotate(-0 122.992615 86.694641)">−1</text>
   </g>
   <g id="text_12">
    <text style="font-size: 9px; font-family: 'Inter', 'Helvetica Neue', 'Arial', sans-serif; text-anchor: middle; fill: #2a2723" x="157.069259" y="86.694641" transform="rotate(-0 157.069259 86.694641)">·</text>
   </g>
   <g id="text_13">
    <text style="font-size: 9px; font-family: 'Inter', 'Helvetica Neue', 'Arial', sans-serif; text-anchor: middle; fill: #2a2723" x="191.145902" y="86.694641" transform="rotate(-0 191.145902 86.694641)">·</text>
   </g>
   <g id="text_14">
    <text style="font-size: 7px; font-family: 'Inter', 'Helvetica Neue', 'Arial', sans-serif; text-anchor: start; fill: #6f6a61" x="60.163804" y="104.356571" transform="rotate(-0 60.163804 104.356571)">mask</text>
   </g>
   <g id="text_15">
    <text style="font-weight: 700; font-size: 8px; font-family: 'Inter', 'Helvetica Neue', 'Arial', sans-serif; text-anchor: middle; fill: #eda100" x="88.915972" y="104.356571" transform="rotate(-0 88.915972 104.356571)">1</text>
   </g>
   <g id="text_16">
    <text style="font-weight: 700; font-size: 8px; font-family: 'Inter', 'Helvetica Neue', 'Arial', sans-serif; text-anchor: middle; fill: #eda100" x="122.992615" y="104.356571" transform="rotate(-0 122.992615 104.356571)">1</text>
   </g>
   <g id="text_17">
    <text style="font-weight: 700; font-size: 8px; font-family: 'Inter', 'Helvetica Neue', 'Arial', sans-serif; text-anchor: middle; fill: #eda100" x="157.069259" y="104.356571" transform="rotate(-0 157.069259 104.356571)">0</text>
   </g>
   <g id="text_18">
    <text style="font-weight: 700; font-size: 8px; font-family: 'Inter', 'Helvetica Neue', 'Arial', sans-serif; text-anchor: middle; fill: #eda100" x="191.145902" y="104.356571" transform="rotate(-0 191.145902 104.356571)">0</text>
   </g>
   <g id="text_19">
    <text style="font-weight: 700; font-size: 7.5px; font-family: 'Inter', 'Helvetica Neue', 'Arial', sans-serif; fill: #2a2723" transform="translate(19.69779 122.218424)">boundary</text>
    <text style="font-weight: 700; font-size: 7.5px; font-family: 'Inter', 'Helvetica Neue', 'Arial', sans-serif; fill: #2a2723" transform="translate(19.69779 130.349596)">(complete)</text>
   </g>
   <g id="text_20">
    <text style="font-size: 9px; font-family: 'Inter', 'Helvetica Neue', 'Arial', sans-serif; text-anchor: middle; fill: #2a2723" x="88.915972" y="126.671783" transform="rotate(-0 88.915972 126.671783)">+1</text>
   </g>
   <g id="text_21">
    <text style="font-size: 9px; font-family: 'Inter', 'Helvetica Neue', 'Arial', sans-serif; text-anchor: middle; fill: #2a2723" x="122.992615" y="126.671783" transform="rotate(-0 122.992615 126.671783)">−1</text>
   </g>
   <g id="text_22">
    <text style="font-size: 9px; font-family: 'Inter', 'Helvetica Neue', 'Arial', sans-serif; text-anchor: middle; fill: #2a2723" x="157.069259" y="126.671783" transform="rotate(-0 157.069259 126.671783)">+1</text>
   </g>
   <g id="text_23">
    <text style="font-size: 9px; font-family: 'Inter', 'Helvetica Neue', 'Arial', sans-serif; text-anchor: middle; fill: #2a2723" x="191.145902" y="126.671783" transform="rotate(-0 191.145902 126.671783)">+1</text>
   </g>
   <g id="text_24">
    <text style="font-size: 7px; font-family: 'Inter', 'Helvetica Neue', 'Arial', sans-serif; text-anchor: start; fill: #6f6a61" x="60.163804" y="144.333714" transform="rotate(-0 60.163804 144.333714)">mask</text>
   </g>
   <g id="text_25">
    <text style="font-weight: 700; font-size: 8px; font-family: 'Inter', 'Helvetica Neue', 'Arial', sans-serif; text-anchor: middle; fill: #1baf7a" x="88.915972" y="144.333714" transform="rotate(-0 88.915972 144.333714)">1</text>
   </g>
   <g id="text_26">
    <text style="font-weight: 700; font-size: 8px; font-family: 'Inter', 'Helvetica Neue', 'Arial', sans-serif; text-anchor: middle; fill: #1baf7a" x="122.992615" y="144.333714" transform="rotate(-0 122.992615 144.333714)">1</text>
   </g>
   <g id="text_27">
    <text style="font-weight: 700; font-size: 8px; font-family: 'Inter', 'Helvetica Neue', 'Arial', sans-serif; text-anchor: middle; fill: #1baf7a" x="157.069259" y="144.333714" transform="rotate(-0 157.069259 144.333714)">1</text>
   </g>
   <g id="text_28">
    <text style="font-weight: 700; font-size: 8px; font-family: 'Inter', 'Helvetica Neue', 'Arial', sans-serif; text-anchor: middle; fill: #1baf7a" x="191.145902" y="144.333714" transform="rotate(-0 191.145902 144.333714)">1</text>
   </g>
   <g id="text_29">
    <text style="font-size: 7.5px; font-family: 'Inter', 'Helvetica Neue', 'Arial', sans-serif; text-anchor: start; fill: #6f6a61" x="23.957371" y="157.659429" transform="rotate(-0 23.957371 157.659429)">Mask: 1 = observed, 0 = not yet observed. All ones reveals completion.</text>
   </g>
  </g>
  <g id="axes_2">
   <g id="patch_11">
    <path d="M 281.057126 104.114286
L 342.241739 104.114286
Q 347.992172 104.114286 347.992172 101.085714
L 347.992172 68.861714
Q 347.992172 65.833143 342.241739 65.833143
L 281.057126 65.833143
Q 275.306692 65.833143 275.306692 68.861714
L 275.306692 101.085714
Q 275.306692 104.114286 281.057126 104.114286
z
" clip-path="url(#pb758d5beea)" style="fill: #fff5d8; stroke: #eda100; stroke-width: 0.8; stroke-linejoin: miter"/>
   </g>
   <g id="patch_12">
    <path d="M 363.863369 104.114286
L 402.046248 104.114286
Q 407.796681 104.114286 407.796681 101.085714
L 407.796681 68.861714
Q 407.796681 65.833143 402.046248 65.833143
L 363.863369 65.833143
Q 358.112935 65.833143 358.112935 68.861714
L 358.112935 101.085714
Q 358.112935 104.114286 363.863369 104.114286
z
" clip-path="url(#pb758d5beea)" style="fill: #f2f0ec; stroke: #6f6a61; stroke-width: 0.8; stroke-linejoin: miter"/>
   </g>
   <g id="patch_13">
    <path d="M 425.968051 104.114286
L 496.353358 104.114286
Q 502.103792 104.114286 502.103792 101.085714
L 502.103792 68.861714
Q 502.103792 65.833143 496.353358 65.833143
L 425.968051 65.833143
Q 420.217618 65.833143 420.217618 68.861714
L 420.217618 101.085714
Q 420.217618 104.114286 425.968051 104.114286
z
" clip-path="url(#pb758d5beea)" style="fill: #e7f7f1; stroke: #1baf7a; stroke-width: 0.8; stroke-linejoin: miter"/>
   </g>
   <g id="patch_14">
    <path d="M 345.851034 84.973714
Q 353.053032 84.973714 358.913388 84.973714
" clip-path="url(#pb758d5beea)" style="fill: none; stroke: #eda100; stroke-width: 1.2; stroke-linecap: round"/>
    <path d="M 355.313388 83.173714
L 358.913388 84.973714
L 355.313388 86.773714
z
" clip-path="url(#pb758d5beea)" style="fill: #eda100; stroke: #eda100; stroke-width: 1.2; stroke-linecap: round"/>
   </g>
   <g id="patch_15">
    <path d="M 405.655263 84.973714
Q 414.004342 84.973714 421.01178 84.973714
" clip-path="url(#pb758d5beea)" style="fill: none; stroke: #1baf7a; stroke-width: 1.2; stroke-linecap: round"/>
    <path d="M 417.41178 83.173714
L 421.01178 84.973714
L 417.41178 86.773714
z
" clip-path="url(#pb758d5beea)" style="fill: #1baf7a; stroke: #1baf7a; stroke-width: 1.2; stroke-linecap: round"/>
   </g>
   <g id="patch_16">
    <path d="M 364.140389 103.811846
Q 412.856471 120.695608 460.304882 104.251588
" clip-path="url(#pb758d5beea)" style="fill: none; stroke: #1baf7a; stroke-width: 1.2; stroke-linecap: round"/>
    <path d="M 456.313941 103.729681
L 460.304882 104.251588
L 457.492792 107.131197
z
" clip-path="url(#pb758d5beea)" style="fill: #1baf7a; stroke: #1baf7a; stroke-width: 1.2; stroke-linecap: round"/>
   </g>
   <g id="patch_17">
    <path d="M 451.269959 148.937143
L 494.053185 148.937143
Q 499.803618 148.937143 499.803618 145.908571
L 499.803618 128.221714
Q 499.803618 125.193143 494.053185 125.193143
L 451.269959 125.193143
Q 445.519526 125.193143 445.519526 128.221714
L 445.519526 145.908571
Q 445.519526 148.937143 451.269959 148.937143
z
" clip-path="url(#pb758d5beea)" style="fill: #fdeceb; stroke: #e34948; stroke-width: 0.8; stroke-linejoin: miter"/>
   </g>
   <g id="patch_18">
    <path d="M 474.961745 103.936002
Q 474.961745 114.049341 474.961745 122.821039
" clip-path="url(#pb758d5beea)" style="fill: none; stroke: #e34948; stroke-width: 1.2; stroke-linecap: round"/>
    <path d="M 476.761745 119.221039
L 474.961745 122.821039
L 473.161745 119.221039
z
" clip-path="url(#pb758d5beea)" style="fill: #e34948; stroke: #e34948; stroke-width: 1.2; stroke-linecap: round"/>
   </g>
   <g id="text_30">
    <text style="font-weight: 700; font-size: 11px; font-family: 'Inter', 'Helvetica Neue', 'Arial', sans-serif; text-anchor: start; fill: #2a2723" x="274.846657" y="35.305143" transform="rotate(-0 274.846657 35.305143)">(b)</text>
   </g>
   <g id="text_31">
    <text style="font-weight: 700; font-size: 10px; font-family: 'Inter', 'Helvetica Neue', 'Arial', sans-serif; text-anchor: start; fill: #2a2723" x="304.748912" y="35.305143" transform="rotate(-0 304.748912 35.305143)">Delayed event reconstruction</text>
   </g>
   <g id="text_32">
    <text style="font-weight: 700; font-size: 7.2px; font-family: 'Inter', 'Helvetica Neue', 'Arial', sans-serif; fill: #2a2723" transform="translate(274.880495 79.246902)">EVENT OBSERVATION</text>
    <text style="font-weight: 700; font-size: 7.2px; font-family: 'Inter', 'Helvetica Neue', 'Arial', sans-serif; fill: #2a2723" transform="translate(281.974745 86.835027)">reveal one feature;</text>
    <text style="font-weight: 700; font-size: 7.2px; font-family: 'Inter', 'Helvetica Neue', 'Arial', sans-serif; fill: #2a2723" transform="translate(274.975557 94.423152)">choose encode or skip</text>
   </g>
   <g id="text_33">
    <text style="font-weight: 700; font-size: 7.2px; font-family: 'Inter', 'Helvetica Neue', 'Arial', sans-serif; fill: #2a2723" transform="translate(371.819558 79.246902)">DELAY</text>
    <text style="font-weight: 700; font-size: 7.2px; font-family: 'Inter', 'Helvetica Neue', 'Arial', sans-serif; fill: #2a2723" transform="translate(360.084121 86.835027)">transient state</text>
    <text style="font-weight: 700; font-size: 7.2px; font-family: 'Inter', 'Helvetica Neue', 'Arial', sans-serif; fill: #2a2723" transform="translate(371.151871 94.423152)">cleared</text>
   </g>
   <g id="text_34">
    <text style="font-weight: 700; font-size: 7.2px; font-family: 'Inter', 'Helvetica Neue', 'Arial', sans-serif; fill: #2a2723" transform="translate(432.092392 79.098739)">DELAYED QUERY</text>
    <text style="font-weight: 700; font-size: 7.2px; font-family: 'Inter', 'Helvetica Neue', 'Arial', sans-serif; fill: #2a2723" transform="translate(425.812642 86.755714)">retrieve from memory;</text>
    <text style="font-weight: 700; font-size: 7.2px; font-family: 'Inter', 'Helvetica Neue', 'Arial', sans-serif; fill: #2a2723" transform="translate(422.680642 94.484689)">predict missing features</text>
   </g>
   <g id="text_35">
    <text style="font-size: 7.5px; font-family: 'Inter', 'Helvetica Neue', 'Arial', sans-serif; text-anchor: middle; fill: #1baf7a" x="359.953074" y="120.105143" transform="rotate(-0 359.953074 120.105143)">episodic memories persist</text>
   </g>
   <g id="text_36">
    <text style="font-size: 8px; font-family: 'Inter', 'Helvetica Neue', 'Arial', sans-serif; text-anchor: middle; fill: #2a2723" x="472.661572" y="139.133268" transform="rotate(-0 472.661572 139.133268)">reward = 1 − error</text>
   </g>
   <g id="text_37">
    <text style="font-size: 7.4px; font-family: 'Inter', 'Helvetica Neue', 'Arial', sans-serif; fill: #6f6a61" transform="translate(281.747178 126.683586)">Goal after the delay: reconstruct missing</text>
    <text style="font-size: 7.4px; font-family: 'Inter', 'Helvetica Neue', 'Arial', sans-serif; fill: #6f6a61" transform="translate(281.747178 134.642286)">situation features from episodic memory.</text>
   </g>
  </g>
  <g id="axes_3">
   <g id="patch_19">
    <path d="M 30.724992 270.928
L 116.489088 270.928
Q 128.671488 270.928 128.671488 267.142286
L 128.671488 242.005143
Q 128.671488 238.219429 116.489088 238.219429
L 30.724992 238.219429
Q 18.542592 238.219429 18.542592 242.005143
L 18.542592 267.142286
Q 18.542592 270.928 30.724992 270.928
z
" clip-path="url(#pc43633ce10)" style="fill: #eaf3fd; stroke: #2a78d6; stroke-width: 0.8; stroke-linejoin: miter"/>
   </g>
   <g id="patch_20">
    <path d="M 157.421952 258.813714
L 228.567168 258.813714
Q 240.749568 258.813714 240.749568 255.028
L 240.749568 235.948
Q 240.749568 232.162286 228.567168 232.162286
L 157.421952 232.162286
Q 145.239552 232.162286 145.239552 235.948
L 145.239552 255.028
Q 145.239552 258.813714 157.421952 258.813714
z
" clip-path="url(#pc43633ce10)" style="fill: #fff5d8; stroke: #eda100; stroke-width: 0.8; stroke-linejoin: miter"/>
   </g>
   <g id="patch_21">
    <path d="M 157.421952 292.128
L 228.567168 292.128
Q 240.749568 292.128 240.749568 288.342286
L 240.749568 269.262286
Q 240.749568 265.476571 228.567168 265.476571
L 157.421952 265.476571
Q 145.239552 265.476571 145.239552 269.262286
L 145.239552 288.342286
Q 145.239552 292.128 157.421952 292.128
z
" clip-path="url(#pc43633ce10)" style="fill: #f2f0ec; stroke: #6f6a61; stroke-width: 0.8; stroke-linejoin: miter"/>
   </g>
   <g id="patch_22">
    <path d="M 274.372992 264.870857
L 355.264128 264.870857
Q 367.446528 264.870857 367.446528 261.085143
L 367.446528 232.919429
Q 367.446528 229.133714 355.264128 229.133714
L 274.372992 229.133714
Q 262.190592 229.133714 262.190592 232.919429
L 262.190592 261.085143
Q 262.190592 264.870857 274.372992 264.870857
z
" clip-path="url(#pc43633ce10)" style="fill: #e7f7f1; stroke: #1baf7a; stroke-width: 0.8; stroke-linejoin: miter"/>
   </g>
   <g id="patch_23">
    <path d="M 121.853032 252.625957
Q 136.956465 249.273505 150.750134 246.211776
" clip-path="url(#pc43633ce10)" style="fill: none; stroke: #2a78d6; stroke-width: 1.2; stroke-linecap: round"/>
    <path d="M 146.845624 245.234636
L 150.750134 246.211776
L 147.625716 248.7491
z
" clip-path="url(#pc43633ce10)" style="fill: #2a78d6; stroke: #2a78d6; stroke-width: 1.2; stroke-linecap: round"/>
   </g>
   <g id="patch_24">
    <path d="M 121.59487 258.655557
Q 136.954091 268.201398 151.173818 277.039036
" clip-path="url(#pc43633ce10)" style="fill: none; stroke: #6f6a61; stroke-width: 1.2; stroke-linecap: round"/>
    <path d="M 149.066385 273.609936
L 151.173818 277.039036
L 147.166078 276.667522
z
" clip-path="url(#pc43633ce10)" style="fill: #6f6a61; stroke: #6f6a61; stroke-width: 1.2; stroke-linecap: round"/>
   </g>
   <g id="patch_25">
    <path d="M 233.981674 245.488
Q 251.471904 245.488 267.620493 245.488
" clip-path="url(#pc43633ce10)" style="fill: none; stroke: #eda100; stroke-width: 1.2; stroke-linecap: round"/>
    <path d="M 264.020493 243.688
L 267.620493 245.488
L 264.020493 247.288
z
" clip-path="url(#pc43633ce10)" style="fill: #eda100; stroke: #eda100; stroke-width: 1.2; stroke-linecap: round"/>
   </g>
   <g id="patch_26">
    <path d="M 30.724992 337.556571
L 116.489088 337.556571
Q 128.671488 337.556571 128.671488 333.770857
L 128.671488 311.662286
Q 128.671488 307.876571 116.489088 307.876571
L 30.724992 307.876571
Q 18.542592 307.876571 18.542592 311.662286
L 18.542592 333.770857
Q 18.542592 337.556571 30.724992 337.556571
z
" clip-path="url(#pc43633ce10)" style="fill: #eaf3fd; stroke: #2a78d6; stroke-width: 0.8; stroke-linejoin: miter"/>
   </g>
   <g id="patch_27">
    <path d="M 162.294912 339.070857
L 238.313088 339.070857
Q 250.495488 339.070857 250.495488 335.285143
L 250.495488 310.148
Q 250.495488 306.362286 238.313088 306.362286
L 162.294912 306.362286
Q 150.112512 306.362286 150.112512 310.148
L 150.112512 335.285143
Q 150.112512 339.070857 162.294912 339.070857
z
" clip-path="url(#pc43633ce10)" style="fill: #e7f7f1; stroke: #1baf7a; stroke-width: 0.8; stroke-linejoin: miter"/>
   </g>
   <g id="patch_28">
    <path d="M 284.118912 339.070857
L 345.518208 339.070857
Q 357.700608 339.070857 357.700608 335.285143
L 357.700608 310.148
Q 357.700608 306.362286 345.518208 306.362286
L 284.118912 306.362286
Q 271.936512 306.362286 271.936512 310.148
L 271.936512 335.285143
Q 271.936512 339.070857 284.118912 339.070857
z
" clip-path="url(#pc43633ce10)" style="fill: #e7f7f1; stroke: #1baf7a; stroke-width: 0.8; stroke-linejoin: miter"/>
   </g>
   <g id="patch_29">
    <path d="M 391.324032 339.070857
L 481.961088 339.070857
Q 494.143488 339.070857 494.143488 335.285143
L 494.143488 310.148
Q 494.143488 306.362286 481.961088 306.362286
L 391.324032 306.362286
Q 379.141632 306.362286 379.141632 310.148
L 379.141632 335.285143
Q 379.141632 339.070857 391.324032 339.070857
z
" clip-path="url(#pc43633ce10)" style="fill: #fdeceb; stroke: #e34948; stroke-width: 0.8; stroke-linejoin: miter"/>
   </g>
   <g id="patch_30">
    <path d="M 121.903594 322.716571
Q 139.393824 322.716571 155.542413 322.716571
" clip-path="url(#pc43633ce10)" style="fill: none; stroke: #2a78d6; stroke-width: 1.2; stroke-linecap: round"/>
    <path d="M 151.942413 320.916571
L 155.542413 322.716571
L 151.942413 324.516571
z
" clip-path="url(#pc43633ce10)" style="fill: #2a78d6; stroke: #2a78d6; stroke-width: 1.2; stroke-linecap: round"/>
   </g>
   <g id="patch_31">
    <path d="M 313.035665 263.049102
Q 268.5249 285.616845 225.210758 307.577879
" clip-path="url(#pc43633ce10)" style="fill: none; stroke: #1baf7a; stroke-width: 1.2; stroke-linecap: round"/>
    <path d="M 229.235618 307.555346
L 225.210758 307.577879
L 227.607648 304.344472
z
" clip-path="url(#pc43633ce10)" style="fill: #1baf7a; stroke: #1baf7a; stroke-width: 1.2; stroke-linecap: round"/>
   </g>
   <g id="patch_32">
    <path d="M 243.727594 322.716571
Q 261.217824 322.716571 277.366413 322.716571
" clip-path="url(#pc43633ce10)" style="fill: none; stroke: #1baf7a; stroke-width: 1.2; stroke-linecap: round"/>
    <path d="M 273.766413 320.916571
L 277.366413 322.716571
L 273.766413 324.516571
z
" clip-path="url(#pc43633ce10)" style="fill: #1baf7a; stroke: #1baf7a; stroke-width: 1.2; stroke-linecap: round"/>
   </g>
   <g id="patch_33">
    <path d="M 350.932714 322.716571
Q 368.422944 322.716571 384.571533 322.716571
" clip-path="url(#pc43633ce10)" style="fill: none; stroke: #1baf7a; stroke-width: 1.2; stroke-linecap: round"/>
    <path d="M 380.971533 320.916571
L 384.571533 322.716571
L 380.971533 324.516571
z
" clip-path="url(#pc43633ce10)" style="fill: #1baf7a; stroke: #1baf7a; stroke-width: 1.2; stroke-linecap: round"/>
   </g>
   <g id="patch_34">
    <path d="M 439.783749 306.573815
Q 331.293967 244.378038 215.608489 288.212705
" clip-path="url(#pc43633ce10)" style="fill: none; stroke-dasharray: 4.44,1.92; stroke-dashoffset: 0; stroke: #e34948; stroke-width: 1.2; stroke-linecap: round"/>
    <path d="M 219.612717 288.620338
L 215.608489 288.212705
L 218.337133 285.253903
z
" clip-path="url(#pc43633ce10)" style="fill: #e34948; stroke-dasharray: 4.44,1.92; stroke-dashoffset: 0; stroke: #e34948; stroke-width: 1.2; stroke-linecap: round"/>
   </g>
   <g id="text_38">
    <text style="font-weight: 700; font-size: 11px; font-family: 'Inter', 'Helvetica Neue', 'Arial', sans-serif; text-anchor: start; fill: #2a2723" x="17.568" y="207.630857" transform="rotate(-0 17.568 207.630857)">(c)</text>
   </g>
   <g id="text_39">
    <text style="font-weight: 700; font-size: 10px; font-family: 'Inter', 'Helvetica Neue', 'Arial', sans-serif; text-anchor: start; fill: #2a2723" x="80.91648" y="207.630857" transform="rotate(-0 80.91648 207.630857)">Differentiable retrieval and learned encoding</text>
   </g>
   <g id="text_40">
    <text style="font-size: 8px; font-family: 'Inter', 'Helvetica Neue', 'Arial', sans-serif; fill: #2a2723" transform="translate(32.481415 252.426214)">current situation model</text>
    <text style="font-size: 8px; font-family: 'Inter', 'Helvetica Neue', 'Arial', sans-serif; fill: #2a2723" transform="translate(36.795165 260.857464)">cue + values + mask</text>
   </g>
   <g id="text_41">
    <text style="font-weight: 700; font-size: 8px; font-family: 'Inter', 'Helvetica Neue', 'Arial', sans-serif; fill: #2a2723" transform="translate(166.10206 243.211375)">encoding actor</text>
    <text style="font-weight: 700; font-size: 8px; font-family: 'Inter', 'Helvetica Neue', 'Arial', sans-serif; fill: #2a2723" transform="translate(175.213935 251.900875)">p(encode)</text>
   </g>
   <g id="text_42">
    <text style="font-size: 8px; font-family: 'Inter', 'Helvetica Neue', 'Arial', sans-serif; fill: #2a2723" transform="translate(184.330185 276.573786)">critic</text>
    <text style="font-size: 8px; font-family: 'Inter', 'Helvetica Neue', 'Arial', sans-serif; fill: #2a2723" transform="translate(179.66206 285.167036)">V(state)</text>
   </g>
   <g id="text_43">
    <text style="font-size: 8px; font-family: 'Inter', 'Helvetica Neue', 'Arial', sans-serif; fill: #2a2723" transform="translate(280.957935 240.599161)">episodic memories</text>
    <text style="font-size: 8px; font-family: 'Inter', 'Helvetica Neue', 'Arial', sans-serif; fill: #2a2723" transform="translate(278.954185 249.030411)">key: situation model</text>
    <text style="font-size: 8px; font-family: 'Inter', 'Helvetica Neue', 'Arial', sans-serif; fill: #2a2723" transform="translate(278.292935 257.541661)">value: feature values</text>
   </g>
   <g id="text_44">
    <text style="font-size: 8px; font-family: 'Inter', 'Helvetica Neue', 'Arial', sans-serif; fill: #2a2723" transform="translate(36.195165 320.448071)">delayed partial query</text>
    <text style="font-size: 8px; font-family: 'Inter', 'Helvetica Neue', 'Arial', sans-serif; fill: #2a2723" transform="translate(43.302665 329.121321)">(same event cue)</text>
   </g>
   <g id="text_45">
    <text style="font-size: 8px; font-family: 'Inter', 'Helvetica Neue', 'Arial', sans-serif; fill: #2a2723" transform="translate(171.783375 320.529071)">cosine similarity</text>
    <text style="font-size: 8px; font-family: 'Inter', 'Helvetica Neue', 'Arial', sans-serif; fill: #2a2723" transform="translate(165.60025 329.040321)">+ softmax attention</text>
   </g>
   <g id="text_46">
    <text style="font-size: 8px; font-family: 'Inter', 'Helvetica Neue', 'Arial', sans-serif; fill: #2a2723" transform="translate(284.51981 320.520946)">episodic retrieval</text>
    <text style="font-size: 8px; font-family: 'Inter', 'Helvetica Neue', 'Arial', sans-serif; fill: #2a2723" transform="translate(283.77856 328.952196)">weighted content</text>
   </g>
   <g id="text_47">
    <text style="font-size: 8px; font-family: 'Inter', 'Helvetica Neue', 'Arial', sans-serif; fill: #2a2723" transform="translate(393.886935 320.512821)">predict missing features</text>
    <text style="font-size: 8px; font-family: 'Inter', 'Helvetica Neue', 'Arial', sans-serif; fill: #2a2723" transform="translate(400.263185 329.040321)">then delayed reward</text>
   </g>
   <g id="text_48">
    <text style="font-size: 7px; font-family: 'Inter', 'Helvetica Neue', 'Arial', sans-serif; text-anchor: middle; fill: #6f6a61" x="327.00096" y="294.9555" transform="rotate(-0 327.00096 294.9555)">delayed advantage</text>
   </g>
   <g id="text_49">
    <text style="font-size: 7.5px; font-family: 'Inter', 'Helvetica Neue', 'Arial', sans-serif; fill: #6f6a61" transform="translate(378.16704 243.399719)">An incomplete memory can dominate</text>
    <text style="font-size: 7.5px; font-family: 'Inter', 'Helvetica Neue', 'Arial', sans-serif; fill: #6f6a61" transform="translate(378.16704 251.379016)">retrieval and block the endpoint memory.</text>
   </g>
  </g>
  <g id="text_50">
   <text style="font-weight: 700; font-size: 12px; font-family: 'Inter', 'Helvetica Neue', 'Arial', sans-serif; text-anchor: start; fill: #2a2723" x="7.2" y="15.864375" transform="rotate(-0 7.2 15.864375)">A controlled test of learned boundary-selective episodic encoding</text>
  </g>
 </g>
 <defs>
  <clipPath id="p12d4a25fb7">
   <rect x="17.568" y="37.728" width="212.979021" height="121.142857"/>
  </clipPath>
  <clipPath id="pb758d5beea">
   <rect x="274.846657" y="37.728" width="230.017343" height="121.142857"/>
  </clipPath>
  <clipPath id="pc43633ce10">
   <rect x="17.568" y="210.659429" width="487.296" height="151.428571"/>
  </clipPath>
 </defs>
</svg>
